<?xml version="1.0" standalone="no"?>
<!DOCTYPE svg PUBLIC "-//W3C//DTD SVG 20010904//EN"
 "http://www.w3.org/TR/2001/REC-SVG-20010904/DTD/svg10.dtd">
<svg version="1.0" xmlns="http://www.w3.org/2000/svg"
 width="512.000000pt" height="512.000000pt" viewBox="0 0 512.000000 512.000000"
 preserveAspectRatio="xMidYMid meet">

<g transform="translate(0.000000,512.000000) scale(0.100000,-0.100000)"
fill="#000000" stroke="none">
<path d="M475 4950 c-19 -8 -19 -9 1 -9 30 -1 40 -41 11 -42 -15 -1 -9 -6 18
-14 28 -9 33 -14 18 -14 -13 -1 -23 -6 -23 -12 0 -5 5 -7 11 -3 6 3 3 -5 -6
-19 -9 -15 -14 -31 -10 -37 11 -18 43 -11 50 11 8 25 -2 39 -11 15 -3 -9 -11
-16 -17 -16 -5 0 -2 9 7 19 10 11 25 17 37 14 10 -3 19 0 19 6 0 6 -6 11 -13
11 -9 0 -12 10 -9 31 3 20 0 34 -9 40 -11 7 -10 9 4 9 9 0 17 5 17 10 0 12
-67 12 -95 0z"/>
<path d="M2385 4828 c-11 -6 -64 -26 -119 -44 -78 -25 -105 -30 -130 -23 -60
18 -111 1 -209 -68 -50 -36 -106 -72 -124 -81 -18 -8 -30 -19 -27 -24 3 -4 3
-17 -1 -28 -4 -14 -19 -21 -53 -25 -223 -28 -247 -45 -208 -140 13 -31 13 -35
-5 -51 -13 -12 -18 -27 -15 -50 2 -23 -2 -35 -13 -39 -15 -6 -15 -7 0 -19 15
-10 15 -14 3 -31 -8 -10 -14 -31 -14 -47 0 -22 -13 -38 -65 -80 -36 -28 -65
-54 -65 -57 0 -2 7 -13 17 -23 15 -17 14 -18 -18 -18 -51 0 -135 43 -153 79
-21 40 -20 53 5 87 l21 29 -27 -29 c-34 -37 -29 -79 14 -118 18 -16 25 -28 18
-31 -7 -2 5 -9 25 -16 21 -7 42 -10 47 -7 6 4 11 -31 13 -86 3 -91 2 -97 -50
-241 -95 -267 -103 -356 -43 -494 17 -40 31 -81 31 -93 0 -13 4 -19 11 -14 8
5 9 -19 3 -87 -4 -52 -8 -102 -8 -113 -1 -29 -51 -73 -103 -90 -55 -18 -168
-36 -230 -36 -24 0 -84 -13 -135 -30 -94 -30 -365 -156 -356 -165 3 -3 34 8
70 25 36 17 132 53 213 80 118 40 175 53 279 65 192 23 252 43 315 106 18 17
33 30 35 28 2 -2 18 -26 35 -53 28 -45 29 -50 14 -61 -14 -11 -15 -18 -4 -57
11 -37 11 -57 0 -103 -15 -68 -45 -107 -108 -141 -38 -21 -41 -24 -16 -19 17
3 47 17 67 31 21 13 41 24 45 24 5 0 21 -32 38 -71 32 -77 41 -87 58 -69 9 9
9 11 -2 8 -10 -2 -22 20 -39 70 l-24 73 38 33 c22 19 40 33 41 32 1 0 -7 -37
-18 -81 -24 -101 -23 -113 2 -50 11 27 22 51 24 53 2 2 11 -23 20 -55 9 -32
30 -82 47 -111 36 -64 31 -87 -32 -128 -50 -33 -53 -44 -4 -15 19 12 41 18 47
15 7 -4 9 -3 4 1 -4 5 0 19 9 33 15 24 15 72 -1 117 -4 11 2 7 14 -10 32 -46
34 -76 11 -139 -29 -75 -57 -104 -127 -126 l-58 -19 60 5 c102 9 192 23 222
36 15 7 35 12 43 13 8 0 14 6 13 12 -1 5 12 23 29 39 l30 29 -21 -42 -21 -42
26 -20 c15 -12 43 -25 63 -31 20 -5 45 -16 56 -24 19 -13 18 -15 -18 -32 -20
-10 -37 -22 -37 -27 0 -5 6 -7 13 -4 47 19 47 19 41 3 -3 -9 -10 -14 -14 -11
-4 3 -7 -1 -7 -8 1 -6 -9 -32 -22 -57 -20 -41 -28 -47 -84 -64 -45 -15 -73
-31 -103 -63 -23 -24 -48 -43 -56 -43 -9 0 -10 -2 -1 -8 8 -5 8 -12 -2 -26
-12 -16 -14 -15 -17 20 -2 33 -7 40 -27 42 -35 5 -51 -22 -51 -84 l0 -53 -57
-21 c-32 -12 -76 -32 -99 -45 -22 -13 -63 -32 -90 -43 -27 -11 -58 -23 -68
-27 -15 -7 -17 -5 -11 6 7 11 6 12 -6 2 -8 -6 -15 -34 -17 -65 -2 -32 -10 -60
-20 -71 -24 -27 -84 -55 -132 -63 -23 -4 -54 -17 -68 -29 -59 -48 -123 -86
-210 -123 -51 -22 -90 -36 -87 -32 3 5 40 23 82 40 78 33 147 73 141 83 -2 3
1 9 6 14 5 5 6 3 2 -4 -4 -7 -3 -13 3 -13 13 0 25 20 27 43 2 28 3 28 24 17
11 -6 20 -8 20 -6 0 3 -9 10 -19 16 -16 8 -25 4 -52 -23 -18 -17 -30 -27 -26
-20 10 17 -12 28 -26 13 -9 -10 -9 -11 0 -6 20 11 15 -9 -6 -28 -14 -13 -21
-14 -26 -6 -6 9 -10 9 -17 -1 -7 -10 -8 -9 -4 6 6 17 3 16 -16 -5 -13 -14 -19
-20 -15 -13 5 6 6 16 3 22 -3 5 -1 12 4 14 6 3 5 4 -2 3 -7 -2 -13 -8 -13 -14
0 -7 -4 -11 -10 -9 -5 1 -9 5 -8 9 1 3 -5 12 -15 20 -16 12 -16 11 -2 -6 13
-18 13 -19 -1 -14 -9 4 -16 1 -16 -7 0 -7 6 -11 12 -9 6 3 12 -2 12 -11 0 -8
-3 -13 -5 -10 -3 3 -11 0 -18 -6 -8 -7 -14 -6 -20 2 -5 8 -3 9 6 4 10 -6 12
-4 7 9 -4 10 -7 20 -7 24 0 3 -7 -3 -15 -14 -15 -19 -15 -19 -30 0 -13 18 -13
22 2 38 11 13 20 15 29 7 9 -7 14 -6 20 2 4 7 3 9 -4 5 -6 -3 -14 -2 -17 4 -5
8 -11 8 -19 1 -7 -6 -17 -7 -21 -3 -5 4 -5 2 -2 -4 9 -15 -13 -32 -35 -29 -10
2 -21 -2 -25 -7 -3 -6 -1 -8 5 -4 6 3 13 2 16 -3 9 -14 -21 -21 -33 -7 -6 7
-9 16 -6 19 3 4 2 4 -2 1 -5 -3 -8 -11 -8 -17 0 -5 -6 -12 -14 -15 -9 -3 -11
0 -6 8 5 9 4 11 -4 6 -6 -4 -10 -10 -8 -14 5 -9 -30 -42 -37 -35 -3 4 0 13 7
21 9 13 9 14 0 8 -8 -4 -13 -2 -13 5 0 10 -3 10 -12 1 -8 -8 -17 -8 -32 -1
-20 9 -20 9 -3 -5 10 -8 18 -18 18 -23 1 -16 9 -16 9 0 0 9 4 17 8 17 5 0 9
-7 9 -15 0 -8 -4 -15 -9 -15 -5 0 -6 -4 -3 -10 3 -5 1 -10 -4 -10 -6 0 -11 5
-11 11 0 5 -5 7 -12 3 -6 -4 -8 -3 -5 3 4 6 -1 17 -10 24 -14 12 -15 11 -8
-11 4 -14 11 -27 15 -30 5 -3 1 -14 -7 -25 -15 -19 -15 -19 -8 4 5 15 3 21 -3
17 -6 -3 -8 2 -5 13 3 10 -1 22 -8 26 -7 5 -10 4 -6 -1 3 -6 -4 -16 -16 -24
-20 -12 -21 -12 -8 3 16 20 8 22 -19 4 -14 -8 -23 -9 -28 -2 -11 17 -35 12
-38 -8 -4 -28 -14 -34 -14 -8 0 12 -4 19 -10 16 -6 -4 -7 -12 -3 -18 5 -9 3
-9 -8 -1 -8 6 -22 10 -32 8 -11 -1 -16 1 -12 4 4 4 15 7 26 7 16 0 22 6 18 18
-6 20 -5 37 2 37 8 0 13 -13 11 -31 -1 -3 6 -6 13 -6 10 0 12 4 5 12 -5 7 -7
15 -3 19 11 11 12 36 1 36 -6 0 -8 -7 -4 -15 3 -8 1 -15 -4 -15 -6 0 -10 8
-10 17 0 15 -2 14 -14 -2 -14 -19 -14 -19 -33 2 l-18 21 -30 -20 c-25 -17 -26
-19 -7 -15 15 4 20 1 15 -6 -13 -20 -12 -39 1 -34 7 3 13 -1 13 -8 0 -10 -5
-11 -17 -5 -11 6 -22 5 -31 -3 -7 -7 -5 -2 5 10 17 21 17 22 -3 35 -12 7 -21
16 -21 21 0 4 5 5 10 2 6 -3 10 -1 10 4 0 14 -13 14 -27 0 -6 -6 -9 -19 -5
-27 4 -12 -1 -10 -17 5 -13 12 -20 26 -16 32 3 6 0 11 -7 11 -8 1 -6 6 6 15
19 15 32 60 14 49 -5 -4 -7 -13 -4 -21 6 -16 -12 -15 -59 2 -11 4 -16 3 -10
-2 14 -11 17 -33 6 -33 -6 0 -10 -186 -10 -482 0 -436 1 -480 15 -455 8 15 17
27 20 27 3 0 -3 -16 -15 -36 -18 -30 -21 -51 -21 -155 l0 -119 1110 0 1109 0
83 56 c130 89 236 154 318 194 80 40 202 92 206 87 1 -1 -4 -29 -11 -62 -8
-32 -13 -61 -10 -63 2 -2 5 5 8 15 3 10 10 39 17 65 36 136 110 42 96 -121
-10 -111 -10 -110 -17 -105 -6 3 -29 -47 -29 -62 0 -2 144 -4 319 -4 l319 0
17 42 c9 24 30 62 46 86 31 47 35 57 17 46 -7 -4 -8 -3 -4 5 4 6 11 9 16 6 5
-3 17 5 27 18 38 48 72 58 150 46 21 -4 33 2 27 13 -5 7 -3 8 6 3 7 -4 16 -2
22 6 8 11 9 11 5 -3 -3 -9 3 -24 16 -34 12 -10 16 -12 10 -4 -24 26 -13 34 14
9 l27 -24 -22 31 c-19 28 -20 32 -4 30 12 -1 16 5 14 24 l-2 25 14 -25 c13
-22 21 -21 17 2 0 4 6 5 14 2 11 -4 20 6 31 32 18 43 21 69 10 99 -5 14 -3 14
5 -3 7 -12 16 -22 21 -22 5 0 1 13 -8 29 -10 17 -22 27 -28 24 -5 -4 -7 0 -3
9 3 9 -1 24 -8 35 -12 16 -13 13 -8 -23 3 -23 1 -49 -4 -59 -8 -14 -12 -12
-24 17 -14 35 -57 87 -46 57 8 -24 -11 -100 -30 -122 -16 -17 -17 -16 -29 10
l-12 28 -1 -31 c-1 -29 -35 -74 -57 -74 -5 0 -29 -16 -53 -35 -24 -19 -46 -35
-48 -35 -2 0 4 14 13 31 8 17 21 71 27 121 11 89 11 90 -17 144 -16 30 -44 75
-62 99 l-33 43 24 6 c31 8 331 141 374 167 18 11 35 19 36 17 11 -11 65 -164
75 -213 12 -59 8 -288 -7 -410 l-6 -49 -28 83 c-15 45 -29 84 -31 87 -11 10 5
-130 23 -200 10 -44 19 -100 19 -124 0 -30 4 -42 12 -40 18 6 27 57 37 218 8
124 14 162 46 260 20 63 46 146 58 185 19 58 29 74 65 102 24 18 41 33 37 33
-4 0 5 20 19 44 33 56 33 99 0 170 -22 48 -26 74 -29 159 -4 164 -16 310 -27
339 -6 16 -38 48 -77 75 -36 26 -95 77 -131 114 -57 58 -72 68 -119 78 -33 7
-67 23 -87 41 -36 31 -147 71 -254 90 -73 13 -168 50 -294 114 -50 25 -111 49
-138 52 l-48 7 0 57 c0 73 4 83 46 115 29 22 37 25 50 14 13 -10 17 -10 25 2
6 10 9 10 9 2 0 -9 17 -13 51 -13 48 0 51 2 65 35 16 40 28 48 14 9 -18 -45
-31 -65 -40 -59 -6 3 -7 0 -4 -8 6 -17 -15 -35 -53 -47 -20 -6 -23 -9 -8 -9
11 -1 34 8 52 19 l32 19 -9 -24 c-17 -45 -42 -90 -63 -113 -11 -12 -16 -22
-10 -22 19 0 70 73 104 149 37 82 49 81 25 -2 -10 -34 -31 -71 -57 -100 -59
-68 -31 -58 32 10 30 33 67 89 86 130 20 44 41 74 53 78 22 7 80 53 80 63 0 4
-20 6 -45 4 l-45 -4 16 39 c9 21 23 51 31 67 l15 28 21 -20 c12 -11 50 -34 84
-51 68 -34 101 -42 40 -10 -21 11 -35 24 -32 29 3 6 0 8 -7 5 -7 -3 -19 5 -27
17 -14 23 -14 23 8 4 11 -11 21 -16 21 -13 0 3 19 0 41 -8 62 -22 82 -17 23 6
-29 11 -72 37 -96 58 l-43 38 6 109 c10 171 16 181 82 148 l32 -16 -35 33
c-19 18 -30 34 -24 36 6 2 45 -3 85 -12 41 -8 79 -15 84 -14 19 1 -40 21 -75
25 -65 9 -110 25 -110 39 0 20 31 95 39 95 3 0 19 -20 34 -45 16 -25 31 -45
34 -45 2 0 -5 16 -17 35 -11 18 -36 69 -55 111 -33 77 -33 77 -18 128 9 28 20
78 25 111 5 33 11 74 14 92 5 26 2 34 -19 48 -29 19 -48 82 -98 333 -28 137
-31 167 -21 195 16 44 6 74 -29 86 -23 8 -29 16 -29 40 0 16 -4 32 -9 35 -5 4
-27 39 -49 79 -22 39 -58 92 -80 117 -42 47 -238 188 -248 178 -3 -4 7 -14 23
-24 141 -86 214 -147 266 -224 26 -37 14 -29 -70 51 -56 53 -131 116 -167 140
-36 24 -66 48 -66 52 0 5 9 11 20 14 29 8 25 31 -9 51 -17 9 -32 25 -35 35 -3
11 -12 18 -23 16 -10 -1 -25 0 -33 3 -8 3 -35 11 -60 18 -25 6 -97 32 -160 57
-63 25 -142 51 -175 58 -55 12 -57 13 -21 14 22 1 37 3 34 6 -3 3 -43 16 -89
30 -91 27 -153 31 -184 13z m-130 -86 c-6 -4 -25 -21 -44 -37 -19 -17 -31 -25
-27 -18 3 6 0 13 -6 16 -7 2 5 13 27 25 40 21 68 29 50 14z m-510 -238 c-16
-7 -47 -16 -68 -20 -42 -7 -77 -43 -77 -79 0 -17 -7 -24 -27 -28 -35 -7 -40
-2 -52 53 -11 51 -8 56 34 65 30 6 30 6 -4 -10 -19 -8 -32 -18 -28 -21 3 -3
13 0 24 6 15 9 187 47 218 48 6 0 -3 -6 -20 -14z m-128 0 c-3 -3 -12 -4 -19
-1 -8 3 -5 6 6 6 11 1 17 -2 13 -5z m674 -250 c25 15 27 15 42 -7 l14 -22 42
24 c43 23 64 24 36 1 -14 -11 -21 -40 -10 -40 2 0 34 11 71 25 71 27 88 31 64
15 -12 -7 -8 -10 15 -11 26 0 27 -2 10 -9 -18 -7 -16 -9 15 -23 19 -8 73 -17
120 -20 92 -6 145 -21 135 -37 -4 -6 -1 -9 6 -8 6 2 14 -3 17 -11 3 -9 0 -11
-8 -6 -9 5 -11 4 -6 -4 4 -6 11 -9 16 -6 5 3 32 -40 60 -97 28 -57 44 -95 36
-84 -8 10 -26 24 -40 31 -22 12 -24 11 -19 -3 6 -15 4 -16 -13 -2 -11 8 0 -3
26 -24 25 -22 73 -69 108 -104 34 -36 62 -62 62 -58 0 4 19 -14 41 -41 90
-104 50 -43 -54 86 -57 68 -101 136 -132 200 -26 53 -54 109 -62 124 -8 16
-13 30 -11 33 5 5 206 -125 230 -149 9 -9 21 -17 26 -17 5 0 14 -10 19 -23 14
-30 126 -477 125 -497 0 -8 8 -54 19 -102 11 -49 21 -121 22 -162 1 -41 5 -69
10 -62 5 7 14 3 28 -14 18 -23 20 -34 14 -130 -3 -63 -13 -131 -26 -170 -11
-36 -27 -125 -35 -199 -8 -74 -19 -153 -25 -175 -13 -51 -58 -133 -112 -206
-66 -90 -278 -342 -327 -388 -25 -24 -44 -48 -42 -54 1 -5 -2 -7 -8 -3 -6 4
-17 2 -24 -4 -31 -25 -235 -64 -222 -42 5 7 0 11 -13 11 -12 0 -21 -4 -21 -10
0 -5 -4 -10 -10 -10 -5 0 -7 7 -4 15 8 19 -15 48 -32 41 -7 -3 -15 2 -18 11
-4 9 -9 13 -12 10 -3 -3 -1 -15 6 -26 13 -25 -4 -28 -34 -6 -10 8 -22 12 -26
10 -5 -3 -11 2 -14 11 -4 11 -2 15 8 11 8 -3 16 2 19 14 3 10 1 17 -3 14 -5
-3 -26 11 -46 30 -22 22 -43 34 -52 30 -11 -4 -12 -2 -4 7 8 11 -1 13 -44 14
l-54 0 47 -50 c36 -37 27 -32 -37 24 -128 111 -376 369 -404 420 -13 25 -36
91 -50 147 -29 112 -29 116 -18 110 4 -3 7 8 7 23 0 16 -3 32 -7 36 -5 4 -8
12 -8 18 0 6 24 -14 53 -45 59 -63 35 -30 -35 47 -59 65 -79 106 -113 224 -23
83 -27 119 -32 290 -5 181 -4 201 17 280 28 106 38 125 89 175 42 40 58 73 19
39 l-21 -19 18 30 c10 17 25 38 33 48 8 9 10 17 5 17 -6 0 -18 -12 -28 -26 -9
-14 -19 -23 -22 -21 -3 3 2 16 11 29 19 26 21 42 4 32 -8 -5 -9 0 -5 15 4 18
2 21 -11 16 -14 -5 -15 -4 -4 6 19 20 14 31 -10 25 -13 -3 -17 -3 -10 0 6 3
10 9 7 14 -8 13 45 134 68 153 12 10 15 16 7 12 -49 -21 59 52 125 86 87 44
103 55 65 45 -16 -5 -20 -4 -12 2 7 5 31 9 54 10 59 3 61 12 2 13 -39 1 -44 3
-24 9 14 4 50 9 80 10 l55 2 -40 13 -40 13 51 1 c28 1 72 4 98 7 l47 7 -23 25
c-23 25 -23 25 21 -3 42 -26 46 -27 72 -11z m-371 -109 c0 -6 -76 -45 -87 -45
-4 1 12 12 37 25 50 27 50 27 50 20z m1021 -212 c13 -16 12 -17 -3 -4 -17 13
-22 21 -14 21 2 0 10 -8 17 -17z m99 -88 c13 -14 21 -25 18 -25 -2 0 -15 11
-28 25 -13 14 -21 25 -18 25 2 0 15 -11 28 -25z m41 -52 c13 -16 12 -17 -3 -4
-17 13 -22 21 -14 21 2 0 10 -8 17 -17z m-1707 -32 c-4 -14 -15 -57 -26 -96
-10 -38 -32 -128 -49 -200 -29 -124 -30 -133 -18 -206 10 -62 10 -86 -1 -125
-18 -68 -27 -81 -27 -42 0 18 -12 65 -26 103 -31 82 -33 138 -11 238 15 63
100 302 125 349 15 27 40 11 33 -21z m196 -1036 c0 -5 -5 -3 -10 5 -5 8 -10
20 -10 25 0 6 5 3 10 -5 5 -8 10 -19 10 -25z m150 -70 c5 -6 5 -17 1 -24 -8
-13 -22 35 -20 68 1 9 4 5 6 -9 3 -14 9 -30 13 -35z m1679 -97 c12 -34 21 -69
20 -77 0 -15 -49 114 -49 131 0 21 10 3 29 -54z m-1934 -22 c-14 -19 -33 -37
-42 -40 -9 -4 1 12 21 34 20 22 37 48 37 58 1 16 2 16 6 0 2 -10 -7 -33 -22
-52z m1840 -256 c3 -5 1 -10 -4 -10 -6 0 -11 5 -11 10 0 6 2 10 4 10 3 0 8 -4
11 -10z m-1611 -75 c-3 -7 0 -16 7 -21 8 -5 10 -3 5 7 -4 8 0 5 9 -6 17 -22
16 -51 -3 -47 -7 1 -11 -3 -9 -9 1 -6 -4 -14 -12 -17 -9 -3 -11 0 -6 9 5 8 4
11 -1 6 -5 -5 -9 -13 -9 -19 0 -12 -95 -52 -103 -44 -3 3 6 10 19 15 13 5 21
10 16 10 -4 1 4 19 18 40 13 22 30 58 37 81 11 35 15 38 25 24 6 -9 9 -22 7
-29z m1426 -435 c7 -14 28 -47 47 -74 51 -72 56 -98 36 -184 -17 -72 -18 -74
-86 -129 l-69 -55 -61 58 -62 59 54 -57 c30 -32 53 -59 50 -61 -10 -9 -196
-67 -215 -67 -11 0 -41 13 -67 30 -43 27 -177 129 -177 134 0 2 10 2 23 2 15
-1 22 5 22 17 0 10 7 22 15 27 19 11 23 59 7 80 -6 8 4 1 23 -17 l35 -31 17
22 c13 17 14 26 5 35 -6 6 -7 11 -1 11 5 0 15 -5 22 -12 7 -7 12 -9 12 -5 0 4
0 10 0 15 0 4 -4 8 -10 8 -5 1 -15 2 -22 3 -6 0 -1 10 11 20 16 14 18 21 9 25
-7 3 -3 4 9 2 12 -2 22 -1 21 3 -2 19 3 24 12 11 8 -12 10 -9 10 13 0 18 -5
27 -16 27 -9 0 -12 -5 -8 -12 4 -7 3 -8 -5 -4 -6 4 -9 11 -6 16 3 4 -5 6 -17
2 -13 -3 -19 -1 -15 5 8 12 -20 26 -33 18 -5 -3 -11 -1 -15 5 -9 14 17 12 71
-6 25 -8 47 -14 48 -12 2 2 21 35 44 73 56 95 119 178 125 162 3 -6 6 -1 6 13
1 15 4 20 9 13 4 -7 29 31 62 95 l55 106 6 -179 c3 -119 10 -188 19 -205z
m-1187 278 l5 -36 -34 20 -35 21 22 23 c26 28 34 23 42 -28z m106 -62 c44 -68
91 -177 143 -336 17 -52 42 -117 55 -144 13 -26 20 -46 16 -43 -5 3 -20 28
-33 56 -13 28 -28 51 -33 51 -5 0 -16 8 -23 18 -9 12 -13 13 -14 3 0 -7 -6
-11 -15 -7 -8 3 -14 2 -12 -2 1 -4 -2 -9 -8 -10 -5 -2 -16 -8 -22 -14 -9 -7
-13 -7 -13 1 0 6 -4 11 -9 11 -5 0 -7 -10 -4 -22 4 -21 3 -21 -7 -5 -7 10 -10
28 -7 39 3 11 3 17 -1 14 -11 -12 -52 158 -57 241 -2 45 -1 104 4 130 6 29 6
54 0 65 -21 40 1 14 40 -46z m-54 -50 c-4 -42 -11 -78 -14 -81 -4 -2 -3 26 2
63 4 37 6 77 4 90 -3 15 -1 20 5 14 6 -6 7 -40 3 -86z m125 -28 c16 -35 29
-57 30 -49 0 8 8 4 20 -10 23 -29 26 -18 4 19 l-16 27 19 -25 c56 -76 149
-183 157 -181 4 2 27 -16 51 -39 24 -23 47 -42 51 -41 5 0 31 -39 57 -87 60
-108 86 -136 205 -214 l95 -63 -33 -6 c-28 -6 -42 -2 -79 24 -25 17 -62 46
-83 65 -21 19 -41 32 -44 29 -3 -3 28 -31 70 -63 49 -38 71 -61 63 -66 -25
-16 -135 -8 -191 13 l-55 21 30 26 c17 13 28 31 25 38 -3 7 3 18 12 26 15 12
16 11 3 -4 -21 -28 -7 -21 18 9 15 16 18 24 8 20 -14 -5 -15 -2 -8 32 1 2 7 0
14 -5 7 -5 5 -2 -5 7 -9 9 -14 19 -11 23 6 5 -14 10 -44 9 -6 0 -9 6 -6 13 6
16 23 19 23 4 0 -5 5 -10 10 -10 6 0 -9 36 -32 80 -23 44 -44 77 -47 75 -2 -3
-24 14 -48 37 -24 23 -43 38 -43 32 0 -5 22 -32 50 -59 27 -27 48 -51 45 -53
-2 -2 -16 9 -30 24 -26 28 -26 28 -21 5 3 -14 1 -20 -4 -15 -5 5 -11 19 -13
31 -4 26 -26 55 -38 47 -5 -3 -6 1 -3 9 5 14 -12 35 -31 36 -5 1 -10 5 -10 10
0 19 -46 70 -58 65 -8 -3 -20 3 -28 12 -13 16 -12 16 9 5 l23 -12 -17 27 c-10
15 -20 22 -22 15 -2 -6 -8 -11 -13 -11 -6 0 -8 4 -5 9 3 5 -1 14 -9 21 -21 17
-19 2 5 -62 11 -28 18 -53 16 -56 -2 -2 -12 18 -21 45 -10 26 -32 83 -50 126
-39 92 -36 103 5 15z m1080 -49 c21 -39 40 -140 39 -204 0 -33 -10 -12 -53
115 -29 85 -57 164 -61 175 -10 29 51 -42 75 -86z m-1233 49 c-3 -7 -5 -2 -5
12 0 14 2 19 5 13 2 -7 2 -19 0 -25z m329 -14 c1 -9 0 -13 -4 -10 -3 4 -7 14
-8 22 -1 9 0 13 4 10 3 -4 7 -14 8 -22z m900 -185 c20 -39 11 -37 -13 4 -24
40 -53 124 -53 151 0 12 12 -12 26 -53 13 -40 31 -86 40 -102z m-1199 119 c-3
-8 -6 -5 -6 6 -1 11 2 17 5 13 3 -3 4 -12 1 -19z m347 6 c3 -8 2 -12 -4 -9 -6
3 -10 10 -10 16 0 14 7 11 14 -7z m505 -42 c-53 -97 -52 -96 -89 -77 l-31 16
48 44 c26 24 56 47 66 50 9 4 17 11 17 16 0 5 5 9 11 9 6 0 -4 -26 -22 -58z
m-539 -12 c17 -22 30 -40 27 -40 -3 0 -22 21 -43 47 -21 26 -33 44 -27 40 6
-4 26 -25 43 -47z m190 19 c0 -4 -7 -6 -15 -3 -8 4 -15 10 -15 15 0 4 7 6 15
3 8 -4 15 -10 15 -15z m280 -5 c-8 -8 -23 -20 -34 -25 -13 -7 -9 -1 9 15 34
29 43 33 25 10z m-495 -24 c10 -11 16 -20 13 -20 -3 0 -13 9 -23 20 -10 11
-16 20 -13 20 3 0 13 -9 23 -20z m178 13 c-7 -2 -19 -2 -25 0 -7 3 -2 5 12 5
14 0 19 -2 13 -5z m-503 -46 c0 -5 -4 -5 -10 -2 -5 3 -10 14 -10 23 0 15 2 15
10 2 5 -8 10 -19 10 -23z m478 6 c-10 -2 -26 -2 -35 0 -10 3 -2 5 17 5 19 0
27 -2 18 -5z m-107 -30 c13 -16 12 -17 -3 -4 -10 7 -18 15 -18 17 0 8 8 3 21
-13z m70 -45 c16 -30 4 -20 -31 25 -29 37 -30 39 -6 17 15 -14 32 -33 37 -42z
m26 27 c0 -20 -4 -19 -17 5 -8 15 -8 18 3 14 8 -3 14 -11 14 -19z m166 8 c-7
-2 -19 -2 -25 0 -7 3 -2 5 12 5 14 0 19 -2 13 -5z m-553 -138 c0 -5 -5 -3 -10
5 -5 8 -10 20 -10 25 0 6 5 3 10 -5 5 -8 10 -19 10 -25z m80 -105 c6 -11 8
-20 6 -20 -3 0 -10 9 -16 20 -6 11 -8 20 -6 20 3 0 10 -9 16 -20z m451 -7 c13
-16 12 -17 -3 -4 -17 13 -22 21 -14 21 2 0 10 -8 17 -17z m-210 -100 c13 -16
12 -17 -3 -4 -10 7 -18 15 -18 17 0 8 8 3 21 -13z m-2156 -162 c3 -5 1 -12 -5
-16 -5 -3 -10 1 -10 9 0 18 6 21 15 7z m429 -12 c-2 -4 3 -15 12 -23 18 -18
11 -21 -17 -6 -15 8 -19 7 -19 -4 0 -8 -4 -17 -9 -20 -13 -8 -8 19 7 36 6 8
10 17 7 20 -3 2 2 5 10 5 8 0 12 -4 9 -8z m241 -10 c-10 -15 -25 -10 -19 6 4
8 10 12 15 9 5 -3 7 -10 4 -15z m-296 -44 c0 -5 -3 -4 -8 4 -7 11 -11 10 -20
-7 -12 -23 -38 -20 -38 3 0 8 4 12 9 9 4 -3 8 1 8 8 0 11 2 10 9 0 6 -10 10
-8 15 10 7 22 7 22 16 3 5 -11 9 -24 9 -30z m-73 -27 c4 -7 4 -10 -1 -6 -4 4
-15 2 -24 -5 -14 -11 -14 -10 -2 6 16 20 18 21 27 5z m-269 -40 c-3 -8 -6 -5
-6 6 -1 11 2 17 5 13 3 -3 4 -12 1 -19z m208 2 c3 -5 1 -10 -4 -10 -6 0 -11 5
-11 10 0 6 2 10 4 10 3 0 8 -4 11 -10z m207 -22 c-7 -7 -12 -27 -12 -45 0 -31
-4 -35 -91 -78 -50 -26 -89 -42 -86 -38 3 4 42 26 86 48 75 36 81 41 81 70 0
27 15 55 29 55 3 0 0 -5 -7 -12z m-227 -188 c-3 -5 -12 -10 -18 -10 -7 0 -6 4
3 10 19 12 23 12 15 0z m-55 -83 l-34 -32 30 36 c16 20 31 34 33 32 3 -2 -10
-18 -29 -36z m-72 -94 c-24 -32 -70 -93 -102 -135 -32 -43 -61 -78 -64 -78 -2
0 0 6 5 13 6 6 52 67 102 135 50 67 94 122 97 122 3 0 -14 -26 -38 -57z m3322
-53 c30 -43 18 -37 -16 7 -15 20 -23 33 -16 29 6 -3 21 -20 32 -36z m30 -50
c0 -5 -5 -10 -11 -10 -5 0 -7 5 -4 10 3 6 8 10 11 10 2 0 4 -4 4 -10z m-10
-23 c0 -2 -10 -12 -22 -23 l-23 -19 19 23 c18 21 26 27 26 19z m21 -25 c-6
-11 -7 -23 -3 -28 4 -5 -1 -2 -10 5 -17 13 -23 8 -18 -14 1 -5 -2 -7 -6 -2 -4
4 -16 -1 -26 -10 -24 -22 -54 -28 -37 -7 6 7 15 12 19 9 3 -2 24 14 45 35 40
41 54 46 36 12z m-3547 -97 c-9 -14 -18 -25 -21 -25 -5 0 5 18 20 38 17 22 18
13 1 -13z m3833 -72 c-3 -10 -5 -4 -5 12 0 17 2 24 5 18 2 -7 2 -21 0 -30z
m-487 13 c0 -2 -7 -7 -16 -10 -8 -3 -12 -2 -9 4 6 10 25 14 25 6z m587 -98
c-3 -7 -5 -2 -5 12 0 14 2 19 5 13 2 -7 2 -19 0 -25z m-267 0 c0 -4 -4 -8 -9
-8 -6 0 -12 4 -15 8 -3 5 1 9 9 9 8 0 15 -4 15 -9z m277 -60 c-3 -7 -5 -2 -5
12 0 14 2 19 5 13 2 -7 2 -19 0 -25z m20 -60 c-3 -8 -6 -5 -6 6 -1 11 2 17 5
13 3 -3 4 -12 1 -19z m-1106 -5 c8 -9 9 -14 2 -10 -6 4 -13 1 -16 -5 -3 -7 -4
-3 -4 10 1 26 1 26 18 5z m580 -6 c-10 -9 -11 -8 -5 6 3 10 9 15 12 12 3 -3 0
-11 -7 -18z m-8 -67 c-3 -12 -8 -19 -11 -16 -5 6 5 36 12 36 2 0 2 -9 -1 -20z"/>
<path d="M1964 4127 l-29 -32 30 25 c17 14 32 26 34 28 2 1 2 4 -1 7 -2 3 -18
-10 -34 -28z"/>
<path d="M2665 4140 c10 -11 20 -20 23 -20 3 0 -3 9 -13 20 -10 11 -20 20 -23
20 -3 0 3 -9 13 -20z"/>
<path d="M2720 4096 c0 -2 8 -10 18 -17 15 -13 16 -12 3 4 -13 16 -21 21 -21
13z"/>
<path d="M2760 4066 c0 -2 8 -10 18 -17 15 -13 16 -12 3 4 -13 16 -21 21 -21
13z"/>
<path d="M2835 4000 c10 -11 20 -20 23 -20 3 0 -3 9 -13 20 -10 11 -20 20 -23
20 -3 0 3 -9 13 -20z"/>
<path d="M3094 3593 c6 -17 3 -23 -9 -23 -9 0 -14 -4 -11 -8 6 -11 -63 -27
-204 -47 -121 -17 -175 -38 -196 -74 -10 -17 -13 -19 -9 -6 5 16 3 17 -6 8
-13 -13 -26 -113 -15 -113 13 0 56 32 52 39 -2 3 10 7 27 8 17 2 44 12 59 23
20 14 26 16 22 5 -4 -10 16 -4 68 19 70 32 166 55 239 57 l34 1 -40 19 c-46
21 -44 22 22 10 26 -5 66 -12 88 -15 l40 -6 -30 14 c-16 8 -25 15 -18 15 7 1
10 8 6 17 -4 11 -8 12 -13 4 -6 -9 -13 -9 -28 -1 -12 6 -25 11 -29 10 -19 -3
-33 2 -33 12 0 8 6 7 18 -2 9 -7 6 0 -8 16 -14 17 -27 32 -29 35 -2 3 0 -5 3
-17z m36 -69 c0 -2 -9 0 -20 6 -11 6 -20 13 -20 16 0 2 9 0 20 -6 11 -6 20
-13 20 -16z"/>
<path d="M1711 3574 c-22 -28 -27 -44 -13 -44 4 0 15 16 24 35 19 42 16 44
-11 9z"/>
<path d="M3192 3580 c0 -14 2 -19 5 -12 2 6 2 18 0 25 -3 6 -5 1 -5 -13z"/>
<path d="M1854 3506 c-23 -7 -61 -27 -85 -43 -46 -32 -88 -73 -74 -73 4 0 2
-7 -5 -15 -8 -10 8 -6 49 11 51 20 68 23 99 15 31 -7 128 -16 282 -25 14 -1
31 -5 38 -9 7 -5 12 -3 12 4 0 8 4 8 16 -2 13 -11 14 -15 2 -23 -19 -15 -17
-60 4 -82 9 -11 26 -40 37 -66 22 -52 32 -61 25 -25 -2 12 -2 16 2 10 3 -7 10
-13 15 -13 6 0 8 4 5 9 -8 12 19 33 29 23 4 -4 5 16 1 43 -14 99 -14 110 -3
117 7 4 5 19 -8 48 -27 61 -73 78 -239 90 -72 5 -138 11 -146 14 -8 2 -33 -1
-56 -8z m415 -80 c-3 -3 -11 5 -18 17 -13 21 -12 21 5 5 10 -10 16 -20 13 -22z
m-61 -121 c9 -17 7 -21 -9 -22 -10 -1 -19 3 -19 8 0 6 5 7 11 3 8 -4 9 1 4 17
-8 27 -3 24 13 -6z m92 -48 c0 -5 -4 -5 -10 -2 -5 3 -10 14 -10 23 0 15 2 15
10 2 5 -8 10 -19 10 -23z m-65 -18 c9 -17 15 -33 13 -35 -3 -2 -12 12 -21 31
-21 43 -13 47 8 4z"/>
<path d="M2898 3286 c-77 -21 -118 -59 -118 -110 0 -12 3 -13 93 -22 55 -6 58
-5 92 29 19 19 35 42 35 51 0 23 37 20 57 -4 10 -11 24 -20 33 -20 8 -1 -5
-12 -30 -25 -55 -30 -40 -33 24 -4 25 11 50 17 55 14 5 -3 13 0 17 6 5 8 3 9
-7 4 -11 -6 -12 -5 -2 5 7 8 28 14 48 14 19 1 35 2 35 4 0 9 -83 37 -140 48
-56 10 -59 12 -25 13 22 0 64 -8 93 -18 32 -11 48 -14 40 -6 -38 35 -204 47
-300 21z m82 -56 c0 -5 -7 -10 -16 -10 -8 0 -12 5 -9 10 3 6 10 10 16 10 5 0
9 -4 9 -10z"/>
<path d="M1830 3208 c-52 -17 -97 -33 -100 -35 -2 -2 1 -13 8 -24 7 -11 9 -25
5 -32 -4 -7 0 -7 10 2 11 8 17 9 17 3 0 -6 7 -9 15 -6 8 4 23 3 33 -2 9 -4 35
-8 57 -9 22 -1 51 -5 65 -9 24 -8 24 -7 -6 20 -16 16 -22 23 -13 16 20 -15 32
-3 18 18 -5 8 -9 20 -8 25 0 6 6 -2 15 -17 25 -47 66 -61 148 -52 39 4 81 6
94 5 28 -3 28 14 2 57 -28 45 -78 64 -180 68 -74 3 -98 -1 -180 -28z m127 16
c-3 -3 -12 -4 -19 -1 -8 3 -5 6 6 6 11 1 17 -2 13 -5z m-52 -14 c-27 -12 -43
-12 -25 0 8 5 22 9 30 9 10 0 8 -3 -5 -9z m-55 -20 c-8 -5 -19 -10 -25 -10 -5
0 -3 5 5 10 8 5 20 10 25 10 6 0 3 -5 -5 -10z m282 -52 c-16 -16 -37 4 -28 28
6 16 8 16 23 1 13 -13 15 -19 5 -29z"/>
<path d="M2180 3195 c13 -14 25 -25 27 -25 1 0 -3 11 -9 25 -6 14 -18 25 -26
25 -12 0 -10 -6 8 -25z"/>
<path d="M3153 3165 c0 -8 4 -12 9 -9 4 3 8 9 8 15 0 5 -4 9 -8 9 -5 0 -9 -7
-9 -15z"/>
<path d="M2988 3153 c7 -3 16 -2 19 1 4 3 -2 6 -13 5 -11 0 -14 -3 -6 -6z"/>
<path d="M2395 3138 c-9 -22 4 -43 17 -30 7 7 7 16 0 29 -10 17 -11 17 -17 1z"/>
<path d="M2830 3110 c0 -4 33 -11 73 -15 39 -4 76 -12 80 -19 6 -7 7 -6 5 4
-3 8 -20 17 -39 21 -67 13 -119 17 -119 9z"/>
<path d="M3352 3095 c0 -16 2 -22 5 -12 2 9 2 23 0 30 -3 6 -5 -1 -5 -18z"/>
<path d="M2415 3092 c-13 -9 -19 -46 -7 -38 5 3 12 15 15 26 6 22 6 22 -8 12z"/>
<path d="M1740 3086 c0 -2 8 -10 18 -17 15 -13 16 -12 3 4 -13 16 -21 21 -21
13z"/>
<path d="M2070 3064 c-8 -1 -50 -6 -92 -9 -43 -4 -78 -11 -78 -17 0 -6 13 -7
33 -2 17 4 59 8 92 9 33 0 69 6 80 13 l20 11 -20 0 c-11 -1 -27 -3 -35 -5z"/>
<path d="M1800 3026 c0 -2 8 -10 18 -17 15 -13 16 -12 3 4 -13 16 -21 21 -21
13z"/>
<path d="M1852 2945 c12 -24 23 -43 26 -41 4 5 -36 86 -43 86 -3 0 5 -20 17
-45z"/>
<path d="M3311 2894 c0 -11 3 -14 6 -6 3 7 2 16 -1 19 -3 4 -6 -2 -5 -13z"/>
<path d="M1882 2875 c0 -11 3 -29 8 -40 11 -25 11 1 0 35 -6 20 -8 21 -8 5z"/>
<path d="M1873 2768 c-6 -24 -13 -52 -17 -63 -5 -12 -1 -10 7 5 15 25 33 100
25 100 -3 0 -9 -19 -15 -42z"/>
<path d="M2320 2802 c0 -7 -11 -22 -25 -34 -24 -21 -35 -46 -15 -33 7 4 9 -3
6 -19 -3 -15 -2 -24 2 -22 4 2 7 -24 8 -57 0 -34 3 -70 5 -79 8 -26 39 -57 53
-52 7 3 21 -4 31 -16 17 -18 20 -19 35 -5 16 15 19 14 36 -7 30 -38 48 -45 39
-17 -6 20 -5 22 6 11 8 -7 15 -17 15 -22 1 -6 2 -12 3 -15 0 -3 10 -1 21 5 16
8 20 8 20 -4 0 -8 -4 -18 -10 -21 -5 -3 -10 -1 -10 6 0 7 -3 9 -7 6 -3 -4 -12
-2 -20 4 -9 9 -13 8 -13 0 0 -17 43 -31 58 -18 14 11 8 64 -9 82 -6 6 -1 16
13 28 l23 18 -22 -11 c-33 -16 -31 13 2 34 24 16 25 15 25 -4 0 -17 3 -18 27
-9 16 6 37 18 47 27 17 15 17 13 -2 -15 -33 -47 -26 -47 18 1 37 40 54 76 29
61 -6 -4 -20 2 -32 13 -12 11 -38 24 -57 29 -28 7 -36 15 -39 39 -4 27 -5 26
-10 -11 -6 -43 -14 -46 -96 -34 -22 3 -29 0 -27 -10 3 -12 1 -12 -13 -1 -12
10 -13 15 -3 21 17 11 4 22 -27 24 -13 0 -22 -1 -20 -3 2 -3 -3 -11 -11 -19
-11 -12 -12 -18 -3 -29 6 -8 8 -14 3 -15 -5 0 0 -5 11 -10 16 -8 15 -8 -8 -4
-19 4 -26 2 -22 -5 6 -9 -7 -14 -27 -11 -23 3 -2 -33 37 -66 25 -20 45 -41 45
-46 0 -5 -23 13 -50 39 -28 26 -50 55 -48 63 1 9 -2 26 -6 39 -5 16 -3 29 7
40 15 17 17 21 17 43 0 5 3 8 8 6 12 -8 6 73 -6 85 -9 9 -12 9 -12 0z m317
-158 c-3 -3 -12 -4 -19 -1 -8 3 -5 6 6 6 11 1 17 -2 13 -5z m38 -23 c3 -5 1
-12 -5 -16 -5 -3 -10 1 -10 9 0 18 6 21 15 7z m-105 -16 c0 -2 -6 -5 -13 -8
-8 -3 -14 1 -14 8 0 7 6 11 14 8 7 -3 13 -6 13 -8z m-125 -13 c-3 -3 -11 0
-18 7 -9 10 -8 11 6 5 10 -3 15 -9 12 -12z m-110 -62 c10 -11 16 -20 13 -20
-3 0 -13 9 -23 20 -10 11 -16 20 -13 20 3 0 13 -9 23 -20z m215 -54 c0 -11
-19 -15 -25 -6 -3 5 1 10 9 10 9 0 16 -2 16 -4z"/>
<path d="M1860 2556 c0 -2 8 -10 18 -17 15 -13 16 -12 3 4 -13 16 -21 21 -21
13z"/>
<path d="M1871 2495 c0 -5 6 -21 14 -35 8 -14 14 -20 14 -15 0 6 -6 21 -14 35
-8 14 -14 21 -14 15z"/>
<path d="M2460 2407 l-23 -32 29 27 c15 15 26 30 23 33 -3 2 -16 -10 -29 -28z"/>
<path d="M2395 2339 c-22 -15 -45 -26 -52 -24 -7 2 -15 -1 -19 -7 -5 -7 -2 -8
6 -3 9 6 11 4 6 -4 -5 -7 -15 -10 -23 -7 -8 3 -11 2 -8 -4 3 -5 -8 -16 -24
-25 -33 -17 -61 -20 -61 -6 0 14 -32 23 -43 12 -14 -14 1 -51 19 -44 25 9 15
-22 -16 -52 -29 -28 -41 -65 -20 -65 5 0 7 6 4 14 -7 17 49 83 71 83 8 0 15
-9 15 -19 0 -10 7 -18 15 -18 25 0 29 -1 43 -12 6 -6 12 -7 12 -4 0 4 12 -1
28 -12 15 -10 33 -21 41 -24 8 -2 16 -15 18 -28 2 -13 9 -28 16 -32 6 -4 8 -8
3 -8 -5 0 -3 -7 4 -15 7 -8 17 -12 24 -8 6 4 5 -1 -3 -10 -7 -9 -10 -17 -6
-17 4 0 2 -7 -5 -15 -7 -8 -9 -15 -4 -15 5 -1 -2 -10 -15 -20 -13 -11 -20 -20
-15 -20 4 0 15 6 23 13 9 7 48 35 86 62 65 45 68 46 40 14 -24 -26 -18 -23 30
16 77 63 84 69 63 62 -9 -3 -19 -3 -23 1 -4 4 13 12 37 19 38 11 31 12 -62 6
-121 -8 -157 -8 -185 0 -11 3 -26 6 -32 6 -7 1 -13 6 -13 12 0 6 7 8 16 5 10
-4 13 -2 7 7 -11 18 -12 36 -3 42 5 3 7 12 4 19 -6 15 42 26 121 26 28 0 78 7
111 14 52 11 68 11 103 -1 53 -18 146 -14 146 6 0 8 -9 19 -20 25 -11 6 -23
15 -26 20 -4 4 -9 4 -13 -2 -3 -5 -22 -10 -41 -9 -19 1 -31 4 -25 7 5 3 -19
18 -53 33 -35 15 -53 20 -42 10 l20 -16 -20 8 c-11 5 -60 12 -110 17 -49 4
-95 10 -100 12 -6 2 -28 -9 -50 -25z m334 -35 c14 -12 -19 -1 -35 12 -18 14
-18 14 6 3 14 -6 27 -13 29 -15z m-209 -19 c0 -8 -9 -15 -20 -15 -11 0 -20 5
-20 11 0 6 7 8 16 5 8 -3 12 -2 9 4 -3 6 -1 10 4 10 6 0 11 -7 11 -15z m140 5
c8 -5 11 -10 5 -10 -5 0 -17 5 -25 10 -8 5 -10 10 -5 10 6 0 17 -5 25 -10z
m-360 -100 c0 -5 -2 -10 -4 -10 -3 0 -8 5 -11 10 -3 6 -1 10 4 10 6 0 11 -4
11 -10z m190 -170 c-8 -5 -11 -10 -6 -10 5 0 1 -9 -9 -20 -10 -11 -23 -20 -29
-20 -6 0 -2 7 9 16 11 8 21 19 21 24 3 18 4 20 17 20 8 0 7 -4 -3 -10z"/>
<path d="M2895 2280 c3 -5 11 -10 16 -10 6 0 7 5 4 10 -3 6 -11 10 -16 10 -6
0 -7 -4 -4 -10z"/>
<path d="M2036 2252 c-3 -5 1 -9 9 -9 8 0 12 4 9 9 -3 4 -7 8 -9 8 -2 0 -6 -4
-9 -8z"/>
<path d="M2050 2201 c0 -6 4 -13 10 -16 6 -3 7 1 4 9 -7 18 -14 21 -14 7z"/>
<path d="M2262 2100 c0 -14 2 -19 5 -12 2 6 2 18 0 25 -3 6 -5 1 -5 -13z"/>
<path d="M2160 2081 c0 -6 4 -13 10 -16 6 -3 7 1 4 9 -7 18 -14 21 -14 7z"/>
<path d="M2125 2012 c52 -55 62 -61 62 -37 0 8 -2 13 -5 10 -3 -2 -28 14 -56
37 l-51 42 50 -52z"/>
<path d="M2390 2048 c0 -7 12 -19 27 -25 l26 -13 -23 25 c-27 29 -30 30 -30
13z"/>
<path d="M2698 1853 c7 -3 16 -2 19 1 4 3 -2 6 -13 5 -11 0 -14 -3 -6 -6z"/>
<path d="M1675 2209 c-4 -6 -5 -12 -2 -15 2 -3 7 2 10 11 7 17 1 20 -8 4z"/>
<path d="M1635 2100 c-3 -6 1 -7 9 -4 18 7 21 14 7 14 -6 0 -13 -4 -16 -10z"/>
<path d="M3061 2004 c0 -11 3 -14 6 -6 3 7 2 16 -1 19 -3 4 -6 -2 -5 -13z"/>
<path d="M2864 1688 c-15 -24 -32 -49 -38 -57 -8 -11 -8 -13 1 -8 12 8 76 107
68 107 -3 0 -17 -19 -31 -42z"/>
<path d="M2783 1608 c-13 -22 -13 -42 0 -29 10 10 19 41 12 41 -2 0 -7 -6 -12
-12z"/>
<path d="M3053 1395 c0 -33 2 -45 4 -27 2 18 2 45 0 60 -2 15 -4 0 -4 -33z"/>
<path d="M1890 2065 c-10 -13 -9 -15 9 -15 11 0 21 4 21 9 0 18 -18 21 -30 6z"/>
<path d="M2012 1966 c-1 -18 4 -38 11 -44 10 -9 14 -8 14 3 0 8 -3 12 -7 10
-4 -2 -7 3 -7 11 0 13 2 13 14 1 8 -8 15 -20 16 -28 2 -8 11 -25 21 -39 l18
-25 -7 25 c-8 28 -51 106 -63 114 -4 3 -9 -10 -10 -28z"/>
<path d="M2011 1754 c0 -11 3 -14 6 -6 3 7 2 16 -1 19 -3 4 -6 -2 -5 -13z"/>
<path d="M460 4729 c0 -28 6 -47 18 -56 16 -14 16 -14 0 -9 -10 3 -18 1 -18
-4 0 -6 14 -10 30 -10 20 0 30 5 30 15 0 8 4 15 10 15 5 0 7 -7 4 -15 -4 -10
0 -15 13 -15 15 0 19 8 21 35 2 19 -2 44 -8 55 -10 18 -8 20 19 20 16 0 31 -6
34 -12 2 -8 3 -7 3 2 -1 12 -18 16 -79 18 l-77 3 0 -42z m27 11 c1 -11 -2 -20
-8 -20 -5 0 -9 9 -9 20 0 11 4 20 8 20 4 0 8 -9 9 -20z m53 3 c0 -11 -3 -14
-8 -7 -4 6 -14 14 -22 17 -10 4 -8 6 8 6 15 1 22 -5 22 -16z m-5 -32 c3 -5 1
-12 -5 -16 -5 -3 -10 1 -10 9 0 18 6 21 15 7z m-45 -5 c0 -3 -4 -8 -10 -11 -5
-3 -10 -1 -10 4 0 6 5 11 10 11 6 0 10 -2 10 -4z"/>
<path d="M613 4685 c0 -22 2 -30 4 -17 2 12 2 30 0 40 -3 9 -5 -1 -4 -23z"/>
<path d="M462 4583 c3 -56 4 -58 31 -58 28 -1 30 2 29 60 -1 30 -1 30 8 -4 4
-19 6 -40 3 -48 -3 -8 3 -13 18 -13 23 0 24 4 24 60 l0 60 -58 0 -57 0 2 -57z
m45 5 c-3 -8 -6 -5 -6 6 -1 11 2 17 5 13 3 -3 4 -12 1 -19z"/>
<path d="M1169 4163 c-13 -16 -12 -17 4 -4 16 13 21 21 13 21 -2 0 -10 -8 -17
-17z"/>
<path d="M1141 4094 c0 -11 3 -14 6 -6 3 7 2 16 -1 19 -3 4 -6 -2 -5 -13z"/>
<path d="M1150 4053 c0 -5 12 -20 28 -34 l27 -24 -25 30 c-14 17 -26 32 -27
34 -2 2 -3 0 -3 -6z"/>
<path d="M4893 3205 c0 -22 2 -30 4 -17 2 12 2 30 0 40 -3 9 -5 -1 -4 -23z"/>
<path d="M3747 2809 c7 -7 15 -10 18 -7 3 3 -2 9 -12 12 -14 6 -15 5 -6 -5z"/>
<path d="M3675 2704 c-4 -36 -10 -78 -15 -94 -8 -26 -5 -32 22 -51 25 -18 118
-48 151 -49 4 0 7 56 7 124 l0 123 -52 7 c-108 12 -105 14 -113 -60z m86 37
c-7 -5 -17 -15 -22 -22 -6 -10 -8 -7 -6 9 1 15 8 22 22 22 15 0 17 -2 6 -9z
m-10 -58 c13 -15 12 -15 -8 -4 -24 12 -29 21 -14 21 5 0 15 -7 22 -17z m-41
-23 c0 -5 -2 -10 -4 -10 -3 0 -8 5 -11 10 -3 6 -1 10 4 10 6 0 11 -4 11 -10z
m17 -42 c-2 -13 -4 -5 -4 17 -1 22 1 32 4 23 2 -10 2 -28 0 -40z m-27 -18 c0
-5 -2 -10 -4 -10 -3 0 -8 5 -11 10 -3 6 -1 10 4 10 6 0 11 -4 11 -10z m29 -37
c0 -25 -1 -25 -8 -8 -5 11 -7 23 -4 28 8 14 13 7 12 -20z m18 -15 c-3 -8 -6
-5 -6 6 -1 11 2 17 5 13 3 -3 4 -12 1 -19z"/>
<path d="M1481 2414 c0 -11 3 -14 6 -6 3 7 2 16 -1 19 -3 4 -6 -2 -5 -13z"/>
<path d="M1588 1823 c7 -3 16 -2 19 1 4 3 -2 6 -13 5 -11 0 -14 -3 -6 -6z"/>
<path d="M1146 1328 c3 -5 10 -6 15 -3 13 9 11 12 -6 12 -8 0 -12 -4 -9 -9z"/>
<path d="M26 1294 c-8 -22 -8 -22 14 -34 14 -7 20 -7 20 0 0 5 -7 10 -16 10
-11 0 -14 6 -9 20 7 24 0 27 -9 4z"/>
<path d="M1074 1299 c-3 -6 -21 -9 -39 -7 -19 2 -31 0 -29 -4 3 -4 15 -8 27
-9 16 -1 12 -4 -13 -11 -19 -6 -29 -13 -23 -15 16 -6 120 24 128 36 3 5 0 13
-6 17 -7 4 -9 3 -6 -3 4 -6 0 -14 -9 -17 -22 -9 -24 -8 -18 9 7 17 -2 20 -12
4z"/>
<path d="M946 1268 c3 -5 10 -6 15 -3 13 9 11 12 -6 12 -8 0 -12 -4 -9 -9z"/>
<path d="M809 1253 c-13 -16 -12 -17 4 -4 9 7 17 15 17 17 0 8 -8 3 -21 -13z"/>
<path d="M716 1252 c-3 -5 1 -9 9 -9 8 0 12 4 9 9 -3 4 -7 8 -9 8 -2 0 -6 -4
-9 -8z"/>
<path d="M127 1230 c-10 -10 -26 -16 -35 -13 -12 3 -18 -2 -19 -16 -1 -12 2
-21 8 -21 5 0 9 6 9 13 0 15 29 19 46 6 12 -10 41 17 30 28 -3 3 -6 0 -7 -8
-1 -8 -4 -5 -7 7 -7 20 -8 20 -25 4z"/>
<path d="M473 1238 c-11 -19 -13 -39 -1 -32 5 3 7 9 4 12 -3 3 -1 11 5 19 6 7
9 13 6 13 -3 0 -9 -6 -14 -12z"/>
<path d="M771 1237 c-8 -10 -7 -14 2 -14 8 0 14 6 14 14 0 7 -1 13 -2 13 -2 0
-8 -6 -14 -13z"/>
<path d="M322 1226 c4 -5 2 -16 -5 -25 -11 -14 -10 -15 7 -1 11 8 20 13 22 10
1 -3 6 0 11 5 4 6 4 7 -1 3 -5 -4 -16 -2 -25 4 -9 7 -13 8 -9 4z"/>
<path d="M584 1222 c4 -3 14 -7 22 -8 9 -1 13 0 10 4 -4 3 -14 7 -22 8 -9 1
-13 0 -10 -4z"/>
<path d="M800 1223 c0 -15 19 -37 26 -31 3 4 -1 14 -10 23 -9 9 -16 13 -16 8z"/>
<path d="M935 1220 c-3 -5 -2 -10 4 -10 5 0 13 5 16 10 3 6 2 10 -4 10 -5 0
-13 -4 -16 -10z"/>
<path d="M425 1191 c-3 -5 -2 -12 3 -15 5 -3 9 1 9 9 0 17 -3 19 -12 6z"/>
<path d="M293 1162 c-8 -5 -9 -13 -3 -22 8 -13 10 -12 10 3 0 10 7 17 18 16
10 0 12 -3 5 -6 -7 -2 -13 -8 -13 -13 0 -16 26 -17 45 -3 18 14 19 15 1 9 -13
-4 -17 -2 -13 7 5 14 -31 21 -50 9z"/>
<path d="M3771 653 c36 -38 76 -81 89 -98 12 -16 21 -24 19 -17 -6 20 -151
182 -163 182 -6 0 19 -30 55 -67z"/>
<path d="M3997 653 c-4 -3 -7 -11 -7 -17 0 -6 5 -5 12 2 6 6 9 14 7 17 -3 3
-9 2 -12 -2z"/>
<path d="M3778 468 c-35 -35 -44 -45 -19 -22 25 22 59 50 75 62 16 12 24 22
18 22 -5 0 -39 -28 -74 -62z"/>
<path d="M3978 223 c7 -3 16 -2 19 1 4 3 -2 6 -13 5 -11 0 -14 -3 -6 -6z"/>
<path d="M3715 184 c14 -34 13 -38 -6 -68 l-21 -31 25 29 25 28 21 -57 c21
-55 21 -58 4 -71 -10 -7 -13 -14 -7 -14 21 0 36 28 29 52 -10 31 -76 168 -81
168 -2 0 3 -16 11 -36z"/>
<path d="M2714 158 c1 -31 0 -55 -3 -54 -3 2 -7 -10 -7 -27 -1 -28 0 -29 12
-12 16 21 16 40 4 105 l-9 45 3 -57z"/>
<path d="M2776 149 c-9 -29 -16 -59 -16 -66 0 -8 -4 -12 -8 -9 -5 3 -9 -13
-10 -35 -5 -71 14 -40 35 58 23 109 22 132 -1 52z"/>
<path d="M2814 191 c3 -4 -1 -48 -8 -99 -7 -51 -10 -92 -6 -92 4 0 11 30 14
68 10 93 14 105 37 99 30 -8 22 8 -11 20 -17 6 -28 8 -26 4z"/>
<path d="M3791 190 c0 -8 4 -22 9 -30 12 -18 12 -2 0 25 -6 13 -9 15 -9 5z"/>
<path d="M2675 179 c-11 -17 1 -21 15 -4 8 9 8 15 2 15 -6 0 -14 -5 -17 -11z"/>
<path d="M4136 149 c8 -38 33 -93 40 -86 4 4 -33 107 -42 116 -2 3 -1 -11 2
-30z"/>
<path d="M2672 138 c-7 -7 -11 -21 -11 -32 1 -21 1 -21 6 -1 3 11 10 26 15 33
13 15 6 16 -10 0z"/>
<path d="M3834 113 c16 -18 28 -34 25 -36 -2 -2 -13 -9 -24 -15 -11 -6 -15
-12 -9 -12 5 0 19 7 30 14 18 14 18 16 -16 48 l-35 33 29 -32z"/>
<path d="M4009 113 c-13 -16 -12 -17 4 -4 16 13 21 21 13 21 -2 0 -10 -8 -17
-17z"/>
<path d="M2670 74 c0 -6 7 -19 16 -30 14 -18 14 -18 3 6 -14 31 -19 36 -19 24z"/>
<path d="M2425 38 c-47 -24 -50 -26 -43 -33 3 -3 27 6 54 21 l49 26 -30 -26
c-33 -28 -23 -36 13 -10 24 16 30 44 10 44 -7 -1 -31 -10 -53 -22z"/>
<path d="M3593 46 c21 -8 46 -21 56 -30 10 -9 24 -16 31 -16 7 0 -7 13 -31 30
-24 16 -55 30 -69 29 -20 0 -18 -2 13 -13z"/>
<path d="M2326 25 c9 -14 20 -25 26 -25 11 0 -23 49 -35 50 -4 0 0 -11 9 -25z"/>
</g>
</svg>
